<svg xmlns="http://www.w3.org/2000/svg" width="64" height="64" viewBox="0 0 64 64" role="img" aria-label="Jengo logo">
  <defs>
    <linearGradient id="jengoGradient" x1="10" y1="8" x2="54" y2="56" gradientUnits="userSpaceOnUse">
      <stop offset="0" stop-color="#FF7A1A"/>
      <stop offset="0.55" stop-color="#FF4D4D"/>
      <stop offset="1" stop-color="#2B45FF"/>
    </linearGradient>
    <filter id="softShadow" x="-20%" y="-20%" width="140%" height="140%">
      <feDropShadow dx="0" dy="6" stdDeviation="5" flood-color="#000" flood-opacity="0.25"/>
    </filter>
  </defs>

  <rect x="6" y="6" width="52" height="52" rx="16" fill="url(#jengoGradient)" filter="url(#softShadow)"/>

  <!-- Interlocking "connections" mark -->
  <path
    d="M24 22c-3.3 0-6 2.7-6 6v8c0 3.3 2.7 6 6 6h6.4c1.7 0 3.3-.7 4.5-1.9l.8-.8a4 4 0 0 0 0-5.7 4 4 0 0 0-5.7 0l-.8.8c-.5.5-1.2.8-1.9.8H24a2.5 2.5 0 0 1-2.5-2.5v-8A2.5 2.5 0 0 1 24 25.5h6a2.5 2.5 0 0 1 2.5 2.5v1.6a2 2 0 0 0 4 0V28c0-3.3-2.7-6-6-6H24z"
    fill="#ffffff"
    opacity="0.95"
  />
  <path
    d="M40 42c3.3 0 6-2.7 6-6v-8c0-3.3-2.7-6-6-6h-6.4c-1.7 0-3.3.7-4.5 1.9l-.8.8a4 4 0 0 0 0 5.7 4 4 0 0 0 5.7 0l.8-.8c.5-.5 1.2-.8 1.9-.8H40a2.5 2.5 0 0 1 2.5 2.5v8A2.5 2.5 0 0 1 40 38.5h-6a2.5 2.5 0 0 1-2.5-2.5v-1.6a2 2 0 0 0-4 0V36c0 3.3 2.7 6 6 6H40z"
    fill="#ffffff"
    opacity="0.85"
  />
</svg>
